<svg xmlns="http://www.w3.org/2000/svg" viewBox="0 0 31.5 36"><defs><style>.cls-1{fill:#3980fb;}</style></defs><g id="Layer_2" data-name="Layer 2"><g id="Layer_1-2" data-name="Layer 1"><path id="Icon_awesome-calendar-day" data-name="Icon awesome-calendar-day" class="cls-1" d="M0,32.63A3.37,3.37,0,0,0,3.38,36H28.13a3.37,3.37,0,0,0,3.37-3.37V13.5H0Zm4.5-13.5A1.12,1.12,0,0,1,5.62,18h6.76a1.12,1.12,0,0,1,1.12,1.13v6.75A1.12,1.12,0,0,1,12.38,27H5.62A1.12,1.12,0,0,1,4.5,25.88ZM28.13,4.5H24.75V1.12A1.12,1.12,0,0,0,23.63,0H21.38a1.12,1.12,0,0,0-1.13,1.12V4.5h-9V1.12A1.12,1.12,0,0,0,10.12,0H7.88A1.12,1.12,0,0,0,6.75,1.12V4.5H3.38A3.38,3.38,0,0,0,0,7.88v3.37H31.5V7.88A3.37,3.37,0,0,0,28.13,4.5Z"/></g></g></svg>