<svg xmlns="http://www.w3.org/2000/svg" viewBox="0 0 34.88 34.88"><defs><style>.cls-1{fill:#3980fb;}</style></defs><g id="Layer_2" data-name="Layer 2"><g id="Layer_1-2" data-name="Layer 1"><path id="Icon_awesome-clock" data-name="Icon awesome-clock" class="cls-1" d="M17.44,0A17.44,17.44,0,1,0,34.88,17.44h0A17.44,17.44,0,0,0,17.44,0Zm4,24.62-6.2-4.51a.86.86,0,0,1-.34-.68V7.59a.85.85,0,0,1,.84-.84h3.38a.85.85,0,0,1,.84.84v9.69l4.47,3.24a.85.85,0,0,1,.18,1.18h0l-2,2.74A.87.87,0,0,1,21.45,24.62Z"/></g></g></svg>